<?xml version="1.0" encoding="UTF-8" standalone="no"?><!DOCTYPE svg PUBLIC "-//W3C//DTD SVG 1.1//EN" "http://www.w3.org/Graphics/SVG/1.1/DTD/svg11.dtd"><svg width="100%" height="100%" viewBox="0 0 2066 546" version="1.1" xmlns="http://www.w3.org/2000/svg" xmlns:xlink="http://www.w3.org/1999/xlink" xml:space="preserve" style="fill-rule:evenodd;clip-rule:evenodd;stroke-linejoin:round;stroke-miterlimit:1.41421;"><g><g id="Außenring"><path id="path3029" d="M272.816,4.612c-52.543,0 -101.552,15.149 -142.895,41.31c1.445,1.718 2.801,3.503 4.048,5.369c40.211,-25.328 87.813,-39.989 138.847,-39.989c144.093,0 260.904,116.811 260.904,260.904c0,144.093 -116.811,260.903 -260.904,260.903c-144.093,0 -260.903,-116.81 -260.903,-260.903c0,-51.26 14.788,-99.059 40.323,-139.383c-1.86,-1.244 -3.659,-2.584 -5.369,-4.031c-26.364,41.452 -41.644,90.65 -41.644,143.414c0,147.787 119.805,267.593 267.593,267.593c147.788,0 267.593,-119.806 267.593,-267.593c0,-147.788 -119.805,-267.594 -267.593,-267.594Z" style="fill:#ff7f2a;fill-rule:nonzero;"/><path id="path3029-0" d="M273.418,70.34c-110.841,0 -200.695,89.854 -200.695,200.695c0,110.841 89.854,200.695 200.695,200.695c110.841,0 200.695,-89.854 200.695,-200.695c0,-37.192 -10.114,-72.021 -27.746,-101.886c-1.217,1.188 -2.527,2.281 -3.914,3.261c16.933,28.959 26.643,62.658 26.643,98.625c0,108.07 -87.608,195.678 -195.678,195.678c-108.07,0 -195.677,-87.608 -195.677,-195.678c0,-108.07 87.607,-195.678 195.677,-195.678c48.999,0 93.799,18.005 128.127,47.766c1.21,-1.182 2.509,-2.263 3.897,-3.245c-35.288,-30.848 -81.471,-49.538 -132.024,-49.538Z" style="fill:#ff7f2a;fill-rule:nonzero;"/><path id="path3012" d="M265.032,399.055c-50.647,-3.023 -95.648,-36.42 -113.193,-84.005c-8.783,-23.821 -10.148,-52.288 -3.659,-76.332c10.135,-37.562 36.508,-68.521 71.932,-84.442c16.99,-7.636 33.123,-11.072 52.489,-11.181c20.638,-0.116 35.392,2.957 54.364,11.323c34.746,15.323 62.343,47.858 71.722,84.558c5.338,20.887 5.284,44.901 -0.146,64.833c-14.623,53.678 -61.755,91.98 -117.236,95.272c-4.371,0.259 -11.694,0.248 -16.273,-0.026l0,0l0,0Z" style="fill:#ff7f2a;fill-rule:nonzero;"/><path id="path3012-9" d="M82.04,138.32c-20.969,-1.263 -39.601,-15.217 -46.865,-35.099c-3.637,-9.954 -4.202,-21.848 -1.515,-31.894c4.196,-15.694 15.115,-28.63 29.782,-35.282c7.034,-3.191 13.714,-4.626 21.732,-4.672c8.545,-0.048 14.653,1.236 22.508,4.731c14.386,6.402 25.812,19.997 29.696,35.331c2.21,8.727 2.187,18.761 -0.061,27.089c-6.054,22.428 -25.568,38.431 -48.539,39.807c-1.81,0.108 -4.842,0.103 -6.738,-0.011l0,0l0,0Z" style="fill:#ff7f2a;fill-rule:nonzero;"/><path id="path3012-9-4" d="M423.957,171.523c-10.485,-0.631 -19.801,-7.608 -23.433,-17.55c-1.818,-4.976 -2.101,-10.923 -0.757,-15.946c2.098,-7.848 7.557,-14.315 14.891,-17.641c3.517,-1.596 6.857,-2.314 10.866,-2.336c4.272,-0.024 7.327,0.618 11.254,2.365c7.193,3.201 12.906,9.998 14.848,17.666c1.105,4.363 1.094,9.38 -0.031,13.544c-3.027,11.214 -12.784,19.216 -24.269,19.904c-0.905,0.054 -2.421,0.051 -3.369,-0.006l0,0l0,0Z" style="fill:#ff7f2a;fill-rule:nonzero;"/></g><text x="645.575px" y="250.553px" style="font-family:'Lato-Bold', 'Lato', sans-serif;font-weight:700;font-size:200px;">MARS GR<tspan x="1532.17px " y="250.553px ">O</tspan>UP</text><path d="M799.033,400.948l-8.544,0l0,-41.472l-25.056,0l0,29.184c0,2.048 0.496,3.568 1.488,4.56c0.992,0.992 2.272,1.488 3.84,1.488c0.896,0 1.672,-0.12 2.328,-0.36c0.656,-0.24 1.224,-0.504 1.704,-0.792c0.48,-0.288 0.888,-0.552 1.224,-0.792c0.336,-0.24 0.632,-0.36 0.888,-0.36c0.448,0 0.848,0.272 1.2,0.816l2.496,4.08c-1.472,1.376 -3.248,2.456 -5.328,3.24c-2.08,0.784 -4.224,1.176 -6.432,1.176c-3.84,0 -6.792,-1.072 -8.856,-3.216c-2.064,-2.144 -3.096,-5.232 -3.096,-9.264l0,-29.76l-5.856,0c-0.512,0 -0.944,-0.152 -1.296,-0.456c-0.352,-0.304 -0.528,-0.776 -0.528,-1.416l0,-3.408l7.968,-1.056l1.968,-14.976c0.096,-0.48 0.312,-0.872 0.648,-1.176c0.336,-0.304 0.776,-0.456 1.32,-0.456l4.32,0l0,16.752l33.6,0l0,47.664Zm2.112,-64.224c0,0.832 -0.168,1.608 -0.504,2.328c-0.336,0.72 -0.784,1.352 -1.344,1.896c-0.56,0.544 -1.208,0.976 -1.944,1.296c-0.736,0.32 -1.52,0.48 -2.352,0.48c-0.832,0 -1.608,-0.16 -2.328,-0.48c-0.72,-0.32 -1.352,-0.752 -1.896,-1.296c-0.544,-0.544 -0.976,-1.176 -1.296,-1.896c-0.32,-0.72 -0.48,-1.496 -0.48,-2.328c0,-0.832 0.16,-1.624 0.48,-2.376c0.32,-0.752 0.752,-1.408 1.296,-1.968c0.544,-0.56 1.176,-1 1.896,-1.32c0.72,-0.32 1.496,-0.48 2.328,-0.48c0.832,0 1.616,0.16 2.352,0.48c0.736,0.32 1.384,0.76 1.944,1.32c0.56,0.56 1.008,1.216 1.344,1.968c0.336,0.752 0.504,1.544 0.504,2.376Z" style="fill:#575757;"/><path d="M1945.03,400.948l-8.544,0l0,-41.472l-25.056,0l0,29.184c0,2.048 0.496,3.568 1.488,4.56c0.992,0.992 2.272,1.488 3.84,1.488c0.896,0 1.672,-0.12 2.328,-0.36c0.656,-0.24 1.224,-0.504 1.704,-0.792c0.48,-0.288 0.888,-0.552 1.224,-0.792c0.336,-0.24 0.632,-0.36 0.888,-0.36c0.448,0 0.848,0.272 1.2,0.816l2.496,4.08c-1.472,1.376 -3.248,2.456 -5.328,3.24c-2.08,0.784 -4.224,1.176 -6.432,1.176c-3.84,0 -6.792,-1.072 -8.856,-3.216c-2.064,-2.144 -3.096,-5.232 -3.096,-9.264l0,-29.76l-5.856,0c-0.512,0 -0.944,-0.152 -1.296,-0.456c-0.352,-0.304 -0.528,-0.776 -0.528,-1.416l0,-3.408l7.968,-1.056l1.968,-14.976c0.096,-0.48 0.312,-0.872 0.648,-1.176c0.336,-0.304 0.776,-0.456 1.32,-0.456l4.32,0l0,16.752l33.6,0l0,47.664Zm2.112,-64.224c0,0.832 -0.168,1.608 -0.504,2.328c-0.336,0.72 -0.784,1.352 -1.344,1.896c-0.56,0.544 -1.208,0.976 -1.944,1.296c-0.736,0.32 -1.52,0.48 -2.352,0.48c-0.832,0 -1.608,-0.16 -2.328,-0.48c-0.72,-0.32 -1.352,-0.752 -1.896,-1.296c-0.544,-0.544 -0.976,-1.176 -1.296,-1.896c-0.32,-0.72 -0.48,-1.496 -0.48,-2.328c0,-0.832 0.16,-1.624 0.48,-2.376c0.32,-0.752 0.752,-1.408 1.296,-1.968c0.544,-0.56 1.176,-1 1.896,-1.32c0.72,-0.32 1.496,-0.48 2.328,-0.48c0.832,0 1.616,0.16 2.352,0.48c0.736,0.32 1.384,0.76 1.944,1.32c0.56,0.56 1.008,1.216 1.344,1.968c0.336,0.752 0.504,1.544 0.504,2.376Z" style="fill:#575757;"/><text x="582.697px" y="400.948px" style="font-family:'Lato-Regular', 'Lato', sans-serif;font-size:96px;fill:#575757;">M<tspan x="670.969px 724.489px 806.281px " y="400.948px 400.948px 400.948px ">ul-</tspan>Ag<tspan x="956.089px 1006.78px 1059.67px " y="400.948px 400.948px 400.948px ">ent</tspan> R<tspan x="1175.69px " y="400.948px ">e</tspan>sear<tspan x="1399.32px " y="400.948px ">c</tspan>h &amp; S<tspan x="1667.88px " y="400.948px ">i</tspan>mula<tspan x="1952.28px " y="400.948px ">o</tspan>n</text></g></svg>