<?xml version="1.0" encoding="UTF-8" standalone="no"?>
<svg
   xmlns:dc="http://purl.org/dc/elements/1.1/"
   xmlns:cc="http://creativecommons.org/ns#"
   xmlns:rdf="http://www.w3.org/1999/02/22-rdf-syntax-ns#"
   xmlns:svg="http://www.w3.org/2000/svg"
   xmlns="http://www.w3.org/2000/svg"
   xmlns:sodipodi="http://sodipodi.sourceforge.net/DTD/sodipodi-0.dtd"
   xmlns:inkscape="http://www.inkscape.org/namespaces/inkscape"
   width="100%"
   height="100%"
   viewBox="0 0 2066 546"
   version="1.1"
   xml:space="preserve"
   style="fill-rule:evenodd;clip-rule:evenodd;stroke-linejoin:round;stroke-miterlimit:1.41421;"
   id="svg2"
   inkscape:version="0.91 r13725"
   sodipodi:docname="MARS Logo Mit Schrift 300dpi 2017-07-27.svg"
   inkscape:export-filename="/Users/lennart/ownCloud_HAW/MARS/Logos/MARS Logo/MARS Logo Mit Schrift 300dpi 2017-07-27.png"
   inkscape:export-xdpi="300"
   inkscape:export-ydpi="300"><metadata
     id="metadata38"><rdf:RDF><cc:Work
         rdf:about=""><dc:format>image/svg+xml</dc:format><dc:type
           rdf:resource="http://purl.org/dc/dcmitype/StillImage" /></cc:Work></rdf:RDF></metadata><defs
     id="defs36" /><sodipodi:namedview
     pagecolor="#ffffff"
     bordercolor="#666666"
     borderopacity="1"
     objecttolerance="10"
     gridtolerance="10"
     guidetolerance="10"
     inkscape:pageopacity="0"
     inkscape:pageshadow="2"
     inkscape:window-width="2329"
     inkscape:window-height="1195"
     id="namedview34"
     showgrid="false"
     inkscape:zoom="0.3751157"
     inkscape:cx="250.63195"
     inkscape:cy="848.40102"
     inkscape:window-x="45"
     inkscape:window-y="124"
     inkscape:window-maximized="0"
     inkscape:current-layer="layer2" /><g
     inkscape:groupmode="layer"
     id="layer3"
     inkscape:label="Subheader"
     style="display:inline"><text
       x="631.69598"
       y="373.48428"
       style="font-size:89.42429352px;font-family:Lato-Regular, Lato, sans-serif;clip-rule:evenodd;display:inline;fill:#575757;fill-rule:evenodd;stroke-linejoin:round;stroke-miterlimit:1.41420996"
       id="text20"
       transform="scale(0.93150306,1.0735338)">Multi-Agent Research &amp; Simulation</text>
</g><g
     inkscape:groupmode="layer"
     id="layer2"
     inkscape:label="Header"
     style="display:inline"><text
       x="611.15192"
       y="244.66579"
       style="font-weight:700;font-size:183.82696533px;font-family:Lato-Bold, Lato, sans-serif;clip-rule:evenodd;display:inline;fill-rule:evenodd;stroke-linejoin:round;stroke-miterlimit:1.41420996"
       id="text12">MARS GROUP<tspan
   x="1426.0522"
   y="244.66579"
   id="tspan14" /></text>
</g><g
     inkscape:groupmode="layer"
     id="layer4"
     inkscape:label="Logo"
     style="display:inline"><g
       style="clip-rule:evenodd;display:inline;fill-rule:evenodd;stroke-linejoin:round;stroke-miterlimit:1.41420996;fill:#cc851d;fill-opacity:1"
       id="Außenring"><path
         id="path3029"
         d="m 272.816,4.612 c -52.543,0 -101.552,15.149 -142.895,41.31 1.445,1.718 2.801,3.503 4.048,5.369 40.211,-25.328 87.813,-39.989 138.847,-39.989 144.093,0 260.904,116.811 260.904,260.904 0,144.093 -116.811,260.903 -260.904,260.903 -144.093,0 -260.903,-116.81 -260.903,-260.903 0,-51.26 14.788,-99.059 40.323,-139.383 -1.86,-1.244 -3.659,-2.584 -5.369,-4.031 -26.364,41.452 -41.644,90.65 -41.644,143.414 0,147.787 119.805,267.593 267.593,267.593 147.788,0 267.593,-119.806 267.593,-267.593 C 540.409,124.418 420.604,4.612 272.816,4.612 Z"
         style="fill:#cc851d;fill-rule:nonzero;fill-opacity:1"
         inkscape:connector-curvature="0" /><path
         id="path3029-0"
         d="m 273.418,70.34 c -110.841,0 -200.695,89.854 -200.695,200.695 0,110.841 89.854,200.695 200.695,200.695 110.841,0 200.695,-89.854 200.695,-200.695 0,-37.192 -10.114,-72.021 -27.746,-101.886 -1.217,1.188 -2.527,2.281 -3.914,3.261 16.933,28.959 26.643,62.658 26.643,98.625 0,108.07 -87.608,195.678 -195.678,195.678 -108.07,0 -195.677,-87.608 -195.677,-195.678 0,-108.07 87.607,-195.678 195.677,-195.678 48.999,0 93.799,18.005 128.127,47.766 1.21,-1.182 2.509,-2.263 3.897,-3.245 C 370.154,89.03 323.971,70.34 273.418,70.34 Z"
         style="fill:#cc851d;fill-rule:nonzero;fill-opacity:1"
         inkscape:connector-curvature="0" /><path
         id="path3012"
         d="m 265.032,399.055 c -50.647,-3.023 -95.648,-36.42 -113.193,-84.005 -8.783,-23.821 -10.148,-52.288 -3.659,-76.332 10.135,-37.562 36.508,-68.521 71.932,-84.442 16.99,-7.636 33.123,-11.072 52.489,-11.181 20.638,-0.116 35.392,2.957 54.364,11.323 34.746,15.323 62.343,47.858 71.722,84.558 5.338,20.887 5.284,44.901 -0.146,64.833 -14.623,53.678 -61.755,91.98 -117.236,95.272 -4.371,0.259 -11.694,0.248 -16.273,-0.026 l 0,0 0,0 z"
         style="fill:#cc851d;fill-rule:nonzero;fill-opacity:1"
         inkscape:connector-curvature="0" /><path
         id="path3012-9"
         d="M 82.04,138.32 C 61.071,137.057 42.439,123.103 35.175,103.221 31.538,93.267 30.973,81.373 33.66,71.327 37.856,55.633 48.775,42.697 63.442,36.045 c 7.034,-3.191 13.714,-4.626 21.732,-4.672 8.545,-0.048 14.653,1.236 22.508,4.731 14.386,6.402 25.812,19.997 29.696,35.331 2.21,8.727 2.187,18.761 -0.061,27.089 -6.054,22.428 -25.568,38.431 -48.539,39.807 -1.81,0.108 -4.842,0.103 -6.738,-0.011 l 0,0 0,0 z"
         style="fill:#cc851d;fill-rule:nonzero;fill-opacity:1"
         inkscape:connector-curvature="0" /><path
         id="path3012-9-4"
         d="m 423.957,171.523 c -10.485,-0.631 -19.801,-7.608 -23.433,-17.55 -1.818,-4.976 -2.101,-10.923 -0.757,-15.946 2.098,-7.848 7.557,-14.315 14.891,-17.641 3.517,-1.596 6.857,-2.314 10.866,-2.336 4.272,-0.024 7.327,0.618 11.254,2.365 7.193,3.201 12.906,9.998 14.848,17.666 1.105,4.363 1.094,9.38 -0.031,13.544 -3.027,11.214 -12.784,19.216 -24.269,19.904 -0.905,0.054 -2.421,0.051 -3.369,-0.006 l 0,0 0,0 z"
         style="fill:#cc851d;fill-rule:nonzero;fill-opacity:1"
         inkscape:connector-curvature="0" /></g></g></svg>