<?xml version="1.0" encoding="UTF-8" standalone="no"?>
<!-- Created with Inkscape (http://www.inkscape.org/) -->

<svg
   xmlns:dc="http://purl.org/dc/elements/1.1/"
   xmlns:cc="http://creativecommons.org/ns#"
   xmlns:rdf="http://www.w3.org/1999/02/22-rdf-syntax-ns#"
   xmlns:svg="http://www.w3.org/2000/svg"
   xmlns="http://www.w3.org/2000/svg"
   xmlns:sodipodi="http://sodipodi.sourceforge.net/DTD/sodipodi-0.dtd"
   xmlns:inkscape="http://www.inkscape.org/namespaces/inkscape"
   width="385"
   height="312"
   id="svg3025"
   version="1.1"
   inkscape:version="0.48.4 r9939"
   sodipodi:docname="marsqr.svg"
   inkscape:export-filename="d:\Users\Jan\Pictures\marsqr.png"
   inkscape:export-xdpi="300"
   inkscape:export-ydpi="300">
  <defs
     id="defs3027" />
  <sodipodi:namedview
     id="base"
     pagecolor="#ffffff"
     bordercolor="#666666"
     borderopacity="1.0"
     inkscape:pageopacity="0.0"
     inkscape:pageshadow="2"
     inkscape:zoom="0.98994949"
     inkscape:cx="148.78475"
     inkscape:cy="0.23959523"
     inkscape:document-units="px"
     inkscape:current-layer="layer1"
     showgrid="false"
     inkscape:window-width="1920"
     inkscape:window-height="1137"
     inkscape:window-x="-8"
     inkscape:window-y="-8"
     inkscape:window-maximized="1" />
  <metadata
     id="metadata3030">
    <rdf:RDF>
      <cc:Work
         rdf:about="">
        <dc:format>image/svg+xml</dc:format>
        <dc:type
           rdf:resource="http://purl.org/dc/dcmitype/StillImage" />
        <dc:title></dc:title>
      </cc:Work>
    </rdf:RDF>
  </metadata>
  <g
     inkscape:label="Layer 1"
     inkscape:groupmode="layer"
     id="layer1"
     transform="translate(0,-740.36218)">
    <path
       style="fill:#000000;fill-opacity:1;stroke:none;display:inline"
       d="m 75.672532,753.86885 0,29.58375 0,29.55313 29.553118,0 29.58375,0 0,-29.55313 0,-29.58375 -29.58375,0 -29.553118,0 z m 92.916248,0 0,8.4525 0,8.4525 4.22625,0 4.22625,0 0,4.22625 0,4.22625 8.4525,0 8.4525,0 0,-12.67875 0,-12.67875 -4.22625,0 -4.22625,0 0,4.22625 0,4.22625 -4.22625,0 -4.22625,0 0,-4.22625 0,-4.22625 -4.22625,0 -4.22625,0 z m 25.3575,25.3575 0,8.4525 0,8.4525 4.22625,0 4.22625,0 0,-4.22625 0,-4.22625 8.4525,0 8.42187,0 0,8.4525 0,8.4525 4.22625,0 4.22626,0 0,4.22625 0,4.19563 4.22624,0 4.22625,0 0,-8.42188 0,-8.4525 4.22625,0 4.22625,0 0,-8.4525 0,-8.4525 -12.67875,0 -12.67875,0 0,-4.22625 0,-4.22625 -4.22625,0 -4.19562,0 0,-4.22625 0,-4.22625 -4.22625,0 -4.22625,0 0,8.4525 0,8.4525 -4.22625,0 -4.22625,0 z m 16.905,-16.905 4.19562,0 4.22625,0 0,4.22625 0,4.22625 8.45251,0 8.45249,0 0,-4.22625 0,-4.22625 4.22625,0 4.22625,0 0,-4.22625 0,-4.22625 -16.90499,0 -16.87438,0 0,4.22625 0,4.22625 z m 33.77937,0 0,8.4525 0,8.4525 4.22625,0 4.22625,0 0,-8.4525 0,-8.4525 -4.22625,0 -4.22625,0 z m -25.3575,42.2625 -4.22625,0 -4.19562,0 0,4.22625 0,4.19563 4.19562,0 4.22625,0 0,-4.19563 0,-4.22625 z m -42.23187,-25.3575 -4.22625,0 -4.22625,0 0,4.22625 0,4.22625 4.22625,0 4.22625,0 0,-4.22625 0,-4.22625 z m -8.4525,0 0,-4.22625 0,-4.22625 -4.22625,0 -4.22625,0 0,4.22625 0,4.22625 4.22625,0 4.22625,0 z m 92.94687,-25.3575 0,29.58375 0,29.55313 29.55313,0 29.58375,0 0,-29.55313 0,-29.58375 -29.58375,0 -29.55313,0 z m -177.410618,8.4525 21.100618,0 21.13125,0 0,21.13125 0,21.13125 -21.13125,0 -21.100618,0 0,-21.13125 0,-21.13125 z m 185.863118,0 21.10063,0 21.13125,0 0,21.13125 0,21.13125 -21.13125,0 -21.10063,0 0,-21.13125 0,-21.13125 z m -177.441248,8.4525 0,12.67875 0,12.67875 12.678748,0 12.67875,0 0,-12.67875 0,-12.67875 -12.67875,0 -12.678748,0 z m 50.714998,0 0,8.4525 0,8.4525 4.22625,0 4.19563,0 0,-8.4525 0,-8.4525 -4.19563,0 -4.22625,0 z m 8.42188,16.905 0,8.4525 0,8.4525 4.22625,0 4.22625,0 0,4.22625 0,4.19563 4.22625,0 4.22625,0 0,-4.19563 0,-4.22625 4.22625,0 4.22625,0 0,-4.22625 0,-4.22625 -8.4525,0 -8.4525,0 0,-4.22625 0,-4.22625 -4.22625,0 -4.22625,0 z m 25.3575,16.905 0,4.22625 0,4.19563 -4.22625,0 -4.22625,0 0,4.22625 0,4.22625 8.4525,0 8.4525,0 0,-8.4525 0,-8.42188 -4.22625,0 -4.22625,0 z m -16.905,8.42188 -4.22625,0 -4.22625,0 0,4.22625 0,4.22625 4.22625,0 4.22625,0 0,-4.22625 0,-4.22625 z m -8.4525,0 0,-4.19563 0,-4.22625 -4.19563,0 -4.22625,0 0,4.22625 0,4.19563 4.22625,0 4.19563,0 z m 126.72625,-42.23188 0,12.67875 0,12.67875 12.67875,0 12.67875,0 0,-12.67875 0,-12.67875 -12.67875,0 -12.67875,0 z m -84.46375,33.81 0,8.42188 0,8.4525 4.22625,0 4.22625,0 0,-8.4525 0,-8.42188 -4.22625,0 -4.22625,0 z m 8.4525,16.87438 0,8.4525 0,8.4525 4.22625,0 4.22625,0 0,8.4525 0,8.4525 -8.4525,0 -8.4525,0 0,8.4525 0,8.42187 8.4525,0 8.4525,0 0,-4.19562 0,-4.22625 4.19562,0 4.22625,0 0,8.42187 0,8.4525 -4.22625,0 -4.19562,0 0,4.22625 0,4.22625 4.19562,0 4.22625,0 0,4.22625 0,4.22625 8.45251,0 8.45249,0 0,-8.4525 0,-8.4525 -4.22625,0 -4.22624,0 0,-16.87437 0,-16.905 -4.22626,0 -4.22625,0 0,-4.22625 0,-4.22625 4.22625,0 4.22626,0 0,-4.22625 0,-4.22625 -4.22626,0 -4.22625,0 0,-4.22625 0,-4.22625 -8.42187,0 -8.4525,0 z m 25.32688,8.4525 8.45249,0 8.4525,0 0,-4.22625 0,-4.22625 -8.4525,0 -8.45249,0 0,4.22625 0,4.22625 z m 16.90499,-8.4525 4.22625,0 4.22625,0 0,-8.4525 0,-8.42188 -4.22625,0 -4.22625,0 0,8.42188 0,8.4525 z m 0,8.4525 0,4.22625 0,4.22625 4.22625,0 4.22625,0 0,-4.22625 0,-4.22625 -4.22625,0 -4.22625,0 z m -16.90499,8.4525 0,4.22625 0,4.22625 4.22624,0 4.22625,0 0,-4.22625 0,-4.22625 -4.22625,0 -4.22624,0 z m 8.45249,8.4525 0,4.22625 0,4.22625 8.4525,0 8.4525,0 0,4.22625 0,4.22625 4.22625,0 4.22625,0 0,4.22625 0,4.19562 4.22626,0 4.22624,0 0,-4.19562 0,-4.22625 4.19563,0 4.22625,0 0,-4.22625 0,-4.22625 -8.42188,0 -8.4525,0 0,-4.22625 0,-4.22625 -12.67875,0 -12.67875,0 z m 25.3575,0 8.4525,0 8.42188,0 0,-4.22625 0,-4.22625 4.22625,0 4.22625,0 0,-4.22625 0,-4.22625 -8.4525,0 -8.42188,0 0,4.22625 0,4.22625 -4.22624,0 -4.22626,0 0,4.22625 0,4.22625 z m 25.32688,-16.905 4.22625,0 4.22625,0 0,4.22625 0,4.22625 8.4525,0 8.4525,0 0,-4.22625 0,-4.22625 -4.22625,0 -4.22625,0 0,-4.22625 0,-4.22625 -8.4525,0 -8.4525,0 0,4.22625 0,4.22625 z m -8.4525,33.81 0,4.22625 0,4.19562 4.22625,0 4.22625,0 0,-4.19562 0,-4.22625 -4.22625,0 -4.22625,0 z m 8.4525,0 4.22625,0 4.22625,0 0,-8.4525 0,-8.4525 -4.22625,0 -4.22625,0 0,8.4525 0,8.4525 z m 8.4525,0 0,4.22625 0,4.19562 8.4525,0 8.4525,0 0,4.22625 0,4.22625 4.22625,0 4.22625,0 0,-8.4525 0,-8.42187 -4.22625,0 -4.22625,0 0,-4.22625 0,-4.22625 -4.22625,0 -4.22625,0 0,4.22625 0,4.22625 -4.22625,0 -4.22625,0 z m 16.905,-8.4525 4.22625,0 4.22625,0 0,-4.22625 0,-4.22625 -4.22625,0 -4.22625,0 0,4.22625 0,4.22625 z m 0,25.32687 -8.4525,0 -8.4525,0 0,-4.22625 0,-4.22625 -4.22625,0 -4.22625,0 0,12.67875 0,12.67875 -4.22625,0 -4.22625,0 0,-4.22625 0,-4.22625 -4.22625,0 -4.19563,0 0,12.67875 0,12.67875 4.19563,0 4.22625,0 0,4.22625 0,4.22625 -4.22625,0 -4.19563,0 0,-4.22625 0,-4.22625 -8.4525,0 -8.4525,0 0,4.22625 0,4.22625 -12.67875,0 -12.67874,0 0,4.22625 0,4.22625 8.45249,0 8.4525,0 0,4.19563 0,4.22625 -8.4525,0 -8.45249,0 0,-4.22625 0,-4.19563 -4.22626,0 -4.22625,0 0,4.19563 0,4.22625 -8.42187,0 -8.4525,0 0,4.22625 0,4.22625 -8.4525,0 -8.4525,0 0,4.22625 0,4.22625 8.4525,0 8.4525,0 0,4.22625 0,4.22625 -8.4525,0 -8.4525,0 0,-4.22625 0,-4.22625 -4.22625,0 -4.22625,0 0,8.4525 0,8.4525 -4.22625,0 -4.22625,0 0,-8.4525 0,-8.4525 -4.22625,0 -4.22625,0 0,4.22625 0,4.22625 -4.22625,0 -4.22625,0 0,-4.22625 0,-4.22625 -4.19563,0 -4.22625,0 0,8.4525 0,8.4525 8.42188,0 8.4525,0 0,12.67882 0,12.6481 21.13125,0 21.13125,0 0,-4.2262 0,-4.1957 8.4525,0 8.42187,0 0,-4.2262 0,-4.2263 4.22625,0 4.22626,0 0,-4.2263 0,-4.22622 4.22624,0 4.22625,0 0,-4.22625 0,-4.22625 -12.67875,0 -12.64812,0 0,-8.4525 0,-8.4525 12.64812,0 12.67875,0 0,8.4525 0,8.4525 4.22625,0 4.22625,0 0,8.4525 0,8.45252 8.4525,0 8.4525,0 0,-8.45252 0,-8.4525 4.22626,0 4.22624,0 0,4.22625 0,4.22625 4.19563,0 4.22625,0 0,-4.22625 0,-4.22625 4.22625,0 4.22625,0 0,-4.22625 0,-4.22625 4.22625,0 4.22625,0 0,-4.22625 0,-4.22625 -4.22625,0 -4.22625,0 0,-4.22625 0,-4.22625 4.22625,0 4.22625,0 0,4.22625 0,4.22625 4.22625,0 4.22625,0 0,-16.87438 0,-16.905 -4.22625,0 -4.22625,0 0,8.4525 0,8.4525 -4.22625,0 -4.22625,0 0,-12.67875 0,-12.67875 8.4525,0 8.4525,0 0,-4.22625 0,-4.22625 -4.22625,0 -4.22625,0 0,-4.22625 0,-4.22625 8.4525,0 8.4525,0 0,-4.22625 0,-4.22625 z m -8.4525,67.58938 0,4.22625 0,4.22625 8.4525,0 8.4525,0 0,-4.22625 0,-4.22625 -8.4525,0 -8.4525,0 z m -25.3575,25.3575 0,8.45252 0,8.4525 -4.22625,0 -4.19563,0 0,-4.2262 0,-4.2263 -4.22624,0 -4.22626,0 0,4.2263 0,4.2262 -12.67875,0 -12.67875,0 0,4.1957 0,4.2262 29.58376,0 29.55312,0 0,-4.2262 0,-4.1957 4.22625,0 4.22625,0 0,-4.2262 0,-4.2263 -8.4525,0 -8.4525,0 0,-4.2263 0,-4.22622 -4.22625,0 -4.22625,0 z m 25.3575,8.45252 4.22625,0 4.22625,0 0,4.2263 0,4.2262 4.22625,0 4.22625,0 0,-8.4525 0,-8.45252 -4.22625,0 -4.22625,0 0,-4.22625 0,-4.22625 -8.4525,0 -8.4525,0 0,4.22625 0,4.22625 4.22625,0 4.22625,0 0,4.22622 0,4.2263 z m -67.58938,8.4525 0,-4.2262 0,-4.2263 -4.22625,0 -4.22624,0 0,4.2263 0,4.2262 4.22624,0 4.22625,0 z m -8.45249,0 -4.22626,0 -4.22625,0 0,4.1957 0,4.2262 4.22625,0 4.22626,0 0,-4.2262 0,-4.1957 z m -59.13688,-33.81002 4.22625,0 4.22625,0 0,-4.22625 0,-4.22625 -4.22625,0 -4.22625,0 0,4.22625 0,4.22625 z m 59.13688,-33.77938 0,-4.22625 0,-4.22625 8.45249,0 8.4525,0 0,-8.4525 0,-8.4525 -4.22625,0 -4.22625,0 0,4.22625 0,4.22625 -8.45249,0 -8.45251,0 0,8.4525 0,8.4525 4.22625,0 4.22626,0 z m -8.45251,-16.905 0,-4.22625 0,-4.22625 -4.22625,0 -4.19562,0 0,-4.22625 0,-4.22625 -4.22625,0 -4.22625,0 0,-4.22625 0,-4.22625 -4.22625,0 -4.22625,0 0,4.22625 0,4.22625 -4.22625,0 -4.22625,0 0,4.22625 0,4.22625 -4.22625,0 -4.22625,0 0,-4.22625 0,-4.22625 4.22625,0 4.22625,0 0,-4.22625 0,-4.22625 -4.22625,0 -4.22625,0 0,-4.22625 0,-4.22625 4.22625,0 4.22625,0 0,-8.42187 0,-8.4525 4.22625,0 4.22625,0 0,-4.22625 0,-4.22625 4.22625,0 4.22625,0 0,-4.22625 0,-4.22625 -8.4525,0 -8.4525,0 0,4.22625 0,4.22625 -4.22625,0 -4.22625,0 0,4.22625 0,4.22625 -4.22625,0 -4.22625,0 0,4.22625 0,4.22625 -8.4525,0 -8.4525,0 0,-4.22625 0,-4.22625 -4.19563,0 -4.22625,0 0,8.4525 0,8.42187 -8.4525,0 -8.4525,0 0,-4.19562 0,-4.22625 -4.22625,0 -4.22625,0 0,-4.22625 0,-4.22625 4.22625,0 4.22625,0 0,-4.22625 0,-4.22625 4.22625,0 4.22625,0 0,4.22625 0,4.22625 4.22625,0 4.22625,0 0,-16.905 0,-16.905 -8.4525,0 -8.4525,0 0,4.22625 0,4.22625 4.22625,0 4.22625,0 0,4.22625 0,4.22625 -8.4525,0 -8.4525,0 0,4.22625 0,4.22625 -4.22625,0 -4.22625,0 0,-4.22625 0,-4.22625 -4.22625,0 -4.22625,0 0,-4.22625 0,-4.22625 -8.452498,0 -8.42187,0 0,4.22625 0,4.22625 -4.22625,0 -4.22625,0 0,4.22625 0,4.22625 12.67875,0 12.648118,0 0,4.22625 0,4.22625 4.22625,0 4.22625,0 0,4.22625 0,4.22625 -8.4525,0 -8.452498,0 0,-4.22625 0,-4.22625 -8.42187,0 -8.4525,0 0,8.4525 0,8.42187 4.22625,0 4.22625,0 0,8.4525 0,8.4525 4.22625,0 4.19562,0 0,-4.22625 0,-4.22625 4.226248,0 4.22625,0 0,4.22625 0,4.22625 4.22625,0 4.22625,0 0,-8.4525 0,-8.4525 4.22625,0 4.22625,0 0,4.22625 0,4.22625 21.13125,0 21.10063,0 0,-4.22625 0,-4.22625 4.22625,0 4.22625,0 0,4.22625 0,4.22625 -4.22625,0 -4.22625,0 0,4.22625 0,4.22625 -8.4525,0 -8.42188,0 0,4.22625 0,4.22625 4.22625,0 4.19563,0 0,4.22625 0,4.22625 -4.19563,0 -4.22625,0 0,-4.22625 0,-4.22625 -4.22625,0 -4.22625,0 0,4.22625 0,4.22625 -4.22625,0 -4.22625,0 0,4.22625 0,4.22625 8.4525,0 8.4525,0 0,4.22625 0,4.22625 4.22625,0 4.19563,0 0,-4.22625 0,-4.22625 4.22625,0 4.22625,0 0,-8.4525 0,-8.4525 4.22625,0 4.22625,0 0,4.22625 0,4.22625 4.22625,0 4.22625,0 0,4.22625 0,4.22625 -4.22625,0 -4.22625,0 0,4.22625 0,4.22625 12.67875,0 12.67875,0 0,4.22625 0,4.22625 4.22625,0 4.22625,0 0,-4.22625 0,-4.22625 4.22625,0 4.22625,0 0,-8.4525 0,-8.4525 4.19562,0 4.22625,0 z m -67.58937,16.905 0,4.22625 0,4.22625 4.22625,0 4.22625,0 0,-4.22625 0,-4.22625 -4.22625,0 -4.22625,0 z m 0,8.4525 -4.19563,0 -4.22625,0 0,8.42188 0,8.4525 8.42188,0 8.4525,0 0,-4.22625 0,-4.22625 -4.22625,0 -4.22625,0 0,-4.22625 0,-4.19563 z m -8.42188,0 0,-4.22625 0,-4.22625 -8.4525,0 -8.4525,0 0,4.22625 0,4.22625 8.4525,0 8.4525,0 z m -8.4525,-33.81 0,-4.22625 0,-4.22625 -4.22625,0 -4.22625,0 0,4.22625 0,4.22625 4.22625,0 4.22625,0 z m -25.3575,-8.4525 0,4.22625 0,4.22625 -8.4525,0 -8.452498,0 0,4.22625 0,4.22625 4.226248,0 4.22625,0 0,8.4525 0,8.4525 8.4525,0 8.4525,0 0,-4.22625 0,-4.22625 -4.22625,0 -4.22625,0 0,-4.22625 0,-4.22625 4.22625,0 4.22625,0 0,-8.4525 0,-8.4525 -4.22625,0 -4.22625,0 z m -8.4525,33.81 -4.22625,0 -4.226248,0 0,-8.4525 0,-8.4525 -4.19562,0 -4.22625,0 0,-4.22625 0,-4.22625 -4.22625,0 -4.22625,0 0,16.905 0,16.905 12.67875,0 12.648118,0 0,-4.22625 0,-4.22625 z m 0,-92.94687 4.22625,0 4.22625,0 0,4.22625 0,4.22625 4.22625,0 4.22625,0 0,-8.4525 0,-8.4525 -8.4525,0 -8.4525,0 0,4.22625 0,4.22625 z m 33.81,25.3575 -4.22625,0 -4.22625,0 0,4.22625 0,4.22625 4.22625,0 4.22625,0 0,-4.22625 0,-4.22625 z m 33.77938,0 0,-4.22625 0,-4.22625 -4.22625,0 -4.22625,0 0,4.22625 0,4.22625 4.22625,0 4.22625,0 z m 0,-8.4525 4.22625,0 4.22625,0 0,-4.22625 0,-4.22625 4.22625,0 4.22625,0 0,-4.22625 0,-4.22625 -16.905,0 -16.905,0 0,4.22625 0,4.22625 8.4525,0 8.4525,0 0,4.22625 0,4.22625 z m 16.905,25.32687 0,4.22625 0,4.22625 4.22625,0 4.22625,0 0,-4.22625 0,-4.22625 -4.22625,0 -4.22625,0 z m 59.13687,25.3575 4.22625,0 4.22625,0 0,-4.22625 0,-4.22625 4.22625,0 4.22625,0 0,-4.22625 0,-4.22625 -4.22625,0 -4.22625,0 0,-4.22625 0,-4.22625 -8.4525,0 -8.4525,0 0,4.22625 0,4.22625 4.22625,0 4.22625,0 0,8.4525 0,8.4525 z m 8.4525,0 0,4.22625 0,4.22625 4.22625,0 4.22625,0 0,-4.22625 0,-4.22625 -4.22625,0 -4.22625,0 z m -59.13687,8.4525 4.22625,0 4.22625,0 0,4.22625 0,4.22625 -4.22625,0 -4.22625,0 0,-4.22625 0,-4.22625 z m 118.27375,0 0,12.67875 0,12.67875 4.22625,0 4.22625,0 0,-12.67875 0,-12.67875 -4.22625,0 -4.22625,0 z m -143.63125,25.3575 0,4.19563 0,4.22625 4.22625,0 4.22625,0 0,-4.22625 0,-4.19563 -4.22625,0 -4.22625,0 z m 84.49437,0 12.67876,0 12.64812,0 0,12.64813 0,12.67875 -12.64812,0 -12.67876,0 0,-12.67875 0,-12.64813 z m -177.410618,8.42188 0,29.58375 0,29.55317 29.553118,0 29.58375,0 0,-29.55317 0,-29.58375 -29.58375,0 -29.553118,0 z m 185.863118,0 0,4.22625 0,4.22625 4.22626,0 4.22624,0 0,-4.22625 0,-4.22625 -4.22624,0 -4.22626,0 z m -177.410618,8.4525 21.100618,0 21.13125,0 0,21.13125 0,21.13127 -21.13125,0 -21.100618,0 0,-21.13127 0,-21.13125 z m 8.42187,8.4525 0,12.67875 0,12.67877 12.678748,0 12.67875,0 0,-12.67877 0,-12.67875 -12.67875,0 -12.678748,0 z m 109.851878,16.905 4.22625,0 4.22625,0 0,4.22622 0,4.2263 -4.22625,0 -4.22625,0 0,-4.2263 0,-4.22622 z m -33.81,8.45252 8.4525,0 8.4525,0 0,4.2263 0,4.2262 -8.4525,0 -8.4525,0 0,-4.2262 0,-4.2263 z"
       id="path3012-9-8"
       inkscape:connector-curvature="0" />
    <text
       xml:space="preserve"
       style="font-size:40px;font-style:normal;font-variant:normal;font-weight:200;font-stretch:normal;text-align:start;line-height:125%;letter-spacing:0px;word-spacing:0px;writing-mode:lr-tb;text-anchor:start;fill:#000000;fill-opacity:1;stroke:none;font-family:Roboto Th;-inkscape-font-specification:Roboto Th Ultra-Light"
       x="6.0609174"
       y="1036.1997"
       id="text3808"
       sodipodi:linespacing="125%"><tspan
         sodipodi:role="line"
         id="tspan3810"
         x="6.0609174"
         y="1036.1997">www.mars-group.org</tspan></text>
  </g>
</svg>
