<?xml version="1.0" encoding="UTF-8" standalone="no"?>
<!-- Created with Inkscape (http://www.inkscape.org/) -->

<svg
   xmlns:dc="http://purl.org/dc/elements/1.1/"
   xmlns:cc="http://creativecommons.org/ns#"
   xmlns:rdf="http://www.w3.org/1999/02/22-rdf-syntax-ns#"
   xmlns:svg="http://www.w3.org/2000/svg"
   xmlns="http://www.w3.org/2000/svg"
   xmlns:sodipodi="http://sodipodi.sourceforge.net/DTD/sodipodi-0.dtd"
   xmlns:inkscape="http://www.inkscape.org/namespaces/inkscape"
   inkscape:export-ydpi="299.97"
   inkscape:export-xdpi="299.97"
   inkscape:export-filename="d:\Users\Jan\Pictures\Mars Logo.png"
   sodipodi:docname="marslogo.svg"
   inkscape:version="0.48.4 r9939"
   version="1.1"
   id="svg2"
   height="1000"
   width="2100">
  <defs
     id="defs4">
    <inkscape:path-effect
       effect="construct_grid"
       id="path-effect3068"
       is_visible="true"
       nr_x="5"
       nr_y="5" />
  </defs>
  <sodipodi:namedview
     id="base"
     pagecolor="#ffffff"
     bordercolor="#666666"
     borderopacity="1.0"
     inkscape:pageopacity="0"
     inkscape:pageshadow="2"
     inkscape:zoom="0.5"
     inkscape:cx="863.43435"
     inkscape:cy="365.82145"
     inkscape:document-units="px"
     inkscape:current-layer="layer1"
     showgrid="true"
     showborder="true"
     inkscape:showpageshadow="false"
     showguides="true"
     inkscape:guide-bbox="true"
     inkscape:window-width="1920"
     inkscape:window-height="1137"
     inkscape:window-x="-8"
     inkscape:window-y="-8"
     inkscape:window-maximized="1"
     borderlayer="false"
     inkscape:snap-page="false" />
  <metadata
     id="metadata7">
    <rdf:RDF>
      <cc:Work
         rdf:about="">
        <dc:format>image/svg+xml</dc:format>
        <dc:type
           rdf:resource="http://purl.org/dc/dcmitype/StillImage" />
        <dc:title></dc:title>
      </cc:Work>
    </rdf:RDF>
  </metadata>
  <g
     inkscape:label="Außenring"
     inkscape:groupmode="layer"
     id="layer1"
     transform="translate(0,-52.362183)"
     style="display:inline">
    <path
       style="fill:#cc861d;fill-opacity:1;stroke:none;display:inline"
       d="m 392.54154,732.32619 c -71.10111,-4.24718 -134.27633,-51.15992 -158.90696,-118.00128 -12.33042,-33.46157 -14.24651,-73.448 -5.13797,-107.22303 14.22929,-52.76297 51.25293,-96.25065 100.98376,-118.6147 23.85041,-10.72557 46.49954,-15.55306 73.68652,-15.70574 28.9727,-0.16268 49.68562,4.15412 76.31893,15.90571 48.77884,21.523 87.52096,67.22527 100.68802,118.77687 7.49389,29.34016 7.41808,63.07256 -0.20471,91.07003 -20.52918,75.401 -86.69581,129.20323 -164.5831,133.82787 -6.13615,0.36435 -16.4162,0.34828 -22.84454,-0.0357 l 0,0 z"
       id="path3012-9-8"
       inkscape:connector-curvature="0" />
    <path
       style="fill:#cc861d;fill-opacity:1"
       d="m 403.5,192.36218 c -71.27662,0 -137.75932,20.38015 -193.842,55.575 1.96018,2.31107 3.8,4.7125 5.49037,7.2225 54.54892,-34.07406 119.12215,-53.7975 188.35163,-53.7975 195.46738,0 353.925,157.14806 353.925,351 0,193.85195 -158.45762,351.00002 -353.925,351.00002 -195.46738,0 -353.925,-157.14807 -353.925,-351.00002 0,-68.96072 20.06128,-133.26632 54.69956,-187.515 -2.52309,-1.6743 -4.96269,-3.47611 -7.28269,-5.4225 C 61.22843,415.19055 40.5,481.37744 40.5,552.36218 c 0,198.82252 162.52064,360.00002 363,360.00002 200.47936,0 363,-161.1775 363,-360.00002 0,-198.82251 -162.52064,-360 -363,-360 z"
       id="path3029"
       inkscape:connector-curvature="0" />
    <path
       style="fill:#cc861d;fill-opacity:1;display:inline"
       d="m 404.31675,280.78718 c -150.35952,0 -272.25,120.88313 -272.25,270 0,149.11688 121.89048,270 272.25,270 150.3595,0 272.25,-120.88312 272.25,-270 0,-50.03602 -13.72001,-96.89218 -37.63856,-137.07 -1.65129,1.59798 -3.42823,3.06931 -5.30888,4.3875 22.96958,38.95916 36.14119,84.29501 36.14119,132.6825 0,145.38895 -118.84322,263.25 -265.44375,263.25 -146.60053,0 -265.44375,-117.86105 -265.44375,-263.25 0,-145.38895 118.84322,-263.25 265.44375,-263.25 66.46905,0 127.24214,24.22144 173.80894,64.26 1.64119,-1.59015 3.40359,-3.04399 5.28618,-4.365 -47.86991,-41.5014 -110.51788,-66.645 -179.09512,-66.645 z"
       id="path3029-0"
       inkscape:connector-curvature="0" />
    <path
       style="fill:#cc861d;fill-opacity:1;stroke:none;display:inline"
       d="m 144.70584,372.2426 c -28.44577,-1.69959 -53.72059,-20.47261 -63.57469,-47.22045 -4.93309,-13.39028 -5.69967,-29.39161 -2.05557,-42.90733 5.69278,-21.1141 20.50501,-38.51652 40.40107,-47.46592 9.54195,-4.29204 18.6033,-6.22385 29.48013,-6.28495 11.59125,-0.0651 19.87797,1.66235 30.53329,6.36497 19.51519,8.61284 35.01494,26.90147 40.28275,47.53082 2.99812,11.74102 2.96779,25.23968 -0.0819,36.4434 -8.21321,30.17314 -34.68482,51.70312 -65.84557,53.55376 -2.45492,0.1458 -6.56771,0.13937 -9.13953,-0.0143 l 0,0 z"
       id="path3012-9"
       inkscape:connector-curvature="0" />
    <path
       style="fill:#cc861d;fill-opacity:1;stroke:none;display:inline"
       d="m 608.52816,416.91154 c -14.22288,-0.8498 -26.8603,-10.2363 -31.78735,-23.61023 -2.46655,-6.69514 -2.84983,-14.6958 -1.02778,-21.45366 2.84638,-10.55705 10.2525,-19.25826 20.20054,-23.73296 4.77098,-2.14602 9.30165,-3.11193 14.74006,-3.14248 5.79563,-0.0325 9.93898,0.83117 15.26665,3.18248 9.75759,4.30642 17.50747,13.45074 20.14137,23.76542 1.49906,5.8705 1.4839,12.61983 -0.0409,18.22169 -4.1066,15.08657 -17.34241,25.85157 -32.92278,26.77689 -1.22746,0.0729 -3.28386,0.0697 -4.56977,-0.007 l 0,-1e-5 z"
       id="path3012-9-4"
       inkscape:connector-curvature="0" />
    <g
       transform="translate(-137.5,52.362183)"
       style="font-size:206px;font-style:normal;font-variant:normal;font-weight:200;font-stretch:normal;line-height:125%;letter-spacing:0px;word-spacing:0px;fill:#cc861d;fill-opacity:1;stroke:none;font-family:Roboto Th;-inkscape-font-specification:Roboto Th Ultra-Light"
       id="flowRoot3018">
      <path
         d="m 1120.9912,178.11018 0.6035,0 61.1563,-137.802733 6.1357,0 0,146.453123 -5.4316,0 0,-133.075194 -0.6035,-0.100586 -59.3457,133.17578 -4.3252,0 -60.6534,-136.092772 -0.6035,0.100586 0,135.992186 -5.4316,0 0,-146.453123 7.5439,0 z"
         style="fill:#cc861d;fill-opacity:1"
         id="path3814"
         inkscape:connector-curvature="0" />
      <path
         d="m 1327.6953,40.307447 0,97.266603 c -10e-5,16.09378 -4.6606,28.66701 -13.9814,37.71972 -9.3211,9.05274 -21.3243,13.5791 -36.0098,13.57911 -14.7527,-1e-5 -26.7894,-4.54313 -36.1103,-13.6294 -9.321,-9.08624 -13.9815,-21.64271 -13.9815,-37.66943 l 0,-97.266603 5.4316,0 0,97.266603 c 0,13.88089 4.2079,24.99563 12.6236,33.34424 8.4156,8.34864 19.0945,12.52295 32.0366,12.52295 12.8749,0 23.5203,-4.17431 31.936,-12.52295 8.4156,-8.34861 12.6235,-19.46335 12.6236,-33.34424 l 0,-97.266603 z"
         style="fill:#cc861d;fill-opacity:1"
         id="path3816"
         inkscape:connector-curvature="0" />
      <path
         d="m 1371.8525,181.32893 79.1612,0 0,5.43164 -84.6934,0 0,-146.453123 5.5322,0 z"
         style="fill:#cc861d;fill-opacity:1"
         id="path3818"
         inkscape:connector-curvature="0" />
      <path
         d="m 1577.4502,45.739087 -51.2988,0 0,141.021483 -5.4317,0 0,-141.021483 -54.9199,0 0,-5.43164 111.6504,0 z"
         style="fill:#cc861d;fill-opacity:1"
         id="path3820"
         inkscape:connector-curvature="0" />
      <path
         d="m 1612.7559,186.76057 -5.4317,0 0,-146.453123 5.4317,0 z"
         style="fill:#cc861d;fill-opacity:1"
         id="path3822"
         inkscape:connector-curvature="0" />
      <path
         d="m 1129.6416,400.50569 -71.5166,0 -16.3955,43.75488 -5.9346,0 54.7188,-146.45312 6.6386,0 54.8194,146.45312 -5.9346,0 z m -69.5049,-5.43164 67.4932,0 -30.6787,-81.97754 -2.8164,-8.54981 -0.6035,0 -2.7159,8.54981 z"
         style="fill:#cc861d;fill-opacity:1"
         id="path3824"
         inkscape:connector-curvature="0" />
      <path
         d="m 1278.8105,424.54573 c -3.0847,5.23048 -9.0025,10.17595 -17.7534,14.83642 -8.751,4.66049 -19.497,6.99072 -32.2378,6.99073 -16.7643,-1e-5 -30.3602,-5.9681 -40.7876,-17.9043 -10.4274,-11.93617 -15.6411,-27.45992 -15.6411,-46.57129 l 0,-23.93945 c 0,-18.3736 5.0628,-33.34412 15.1885,-44.91162 10.1256,-11.56724 23.3024,-17.35093 39.5303,-17.35108 15.6242,1.5e-4 28.0801,4.02358 37.3677,12.07031 9.2873,8.04701 13.7633,18.37382 13.4282,30.98047 l -0.2012,0.60352 -4.5264,0 c -10e-5,-11.19845 -4.0068,-20.36853 -12.02,-27.51026 -8.0134,-7.14146 -19.3629,-10.71225 -34.0483,-10.7124 -14.8197,1.5e-4 -26.7392,5.2809 -35.7583,15.84229 -9.0193,10.56164 -13.5289,24.15749 -13.5288,40.7876 l 0,24.14062 c -10e-5,17.43494 4.6604,31.63431 13.9814,42.59814 9.3209,10.96388 21.6595,16.44581 37.0156,16.44581 11.735,0 21.408,-1.91113 29.0191,-5.7334 7.6109,-3.82226 12.791,-8.2145 15.5405,-13.17676 l 0,-41.64258 -44.7607,0 0,-5.53223 50.1923,0 z"
         style="fill:#cc861d;fill-opacity:1"
         id="path3826"
         inkscape:connector-curvature="0" />
      <path
         d="m 1395.0879,370.63167 -70.4102,0 0,68.19726 80.67,0 0,5.43164 -86.1016,0 0,-146.45312 86.1016,0 0,5.43164 -80.67,0 0,61.96093 70.4102,0 z"
         style="fill:#cc861d;fill-opacity:1"
         id="path3828"
         inkscape:connector-curvature="0" />
      <path
         d="m 1538.2217,444.26057 -5.4317,0 -93.9472,-136.39453 -0.6035,0.20117 0,136.19336 -5.5323,0 0,-146.45312 5.5323,0 93.9472,136.09277 0.6035,-0.20117 0,-135.8916 5.4317,0 z"
         style="fill:#cc861d;fill-opacity:1"
         id="path3830"
         inkscape:connector-curvature="0" />
      <path
         d="m 1675.6221,303.23909 -51.2989,0 0,141.02148 -5.4316,0 0,-141.02148 -54.9199,0 0,-5.43164 111.6504,0 z"
         style="fill:#cc861d;fill-opacity:1"
         id="path3832"
         inkscape:connector-curvature="0" />
      <path
         d="m 1057.4209,633.06038 0,68.80078 -5.4316,0 0,-146.45313 47.6777,0 c 15.4231,1.5e-4 27.2922,3.33625 35.6074,10.0083 8.315,6.67233 12.4726,16.4124 12.4727,29.22022 -10e-5,8.24814 -2.6321,15.74179 -7.896,22.48096 -5.2641,6.73933 -12.456,11.11481 -21.5757,13.12646 10.5279,1.81062 18.0718,5.66641 22.6318,11.56738 4.5598,5.9011 6.8398,13.44504 6.8399,22.63184 l 0,13.78027 c -10e-5,4.55992 0.5531,8.65041 1.6596,12.27149 1.1064,3.6211 2.9337,6.57162 5.482,8.85156 l 0,2.51465 -5.3311,0 c -2.4142,-2.74935 -4.2247,-6.1525 -5.4316,-10.20948 -1.2072,-4.05695 -1.8107,-8.60007 -1.8106,-13.62939 l 0,-13.37793 c -10e-5,-9.92443 -3.4032,-17.66954 -10.2094,-23.23535 -6.8065,-5.56569 -16.513,-8.34857 -29.1197,-8.34863 z m 0,-5.43164 41.2402,0 c 14.9537,7e-5 25.9679,-3.15162 33.0425,-9.45508 7.0745,-6.3033 10.6117,-14.14899 10.6118,-23.53711 -10e-5,-10.93022 -3.5709,-19.29561 -10.7124,-25.09619 -7.1417,-5.80032 -17.787,-8.70055 -31.936,-8.70069 l -42.2461,0 z"
         style="fill:#cc861d;fill-opacity:1"
         id="path3834"
         inkscape:connector-curvature="0" />
      <path
         d="m 1265.5332,628.13167 -70.4102,0 0,68.19726 80.67,0 0,5.43164 -86.1016,0 0,-146.45312 86.1016,0 0,5.43164 -80.67,0 0,61.96093 70.4102,0 z"
         style="fill:#cc861d;fill-opacity:1"
         id="path3836"
         inkscape:connector-curvature="0" />
      <path
         d="m 1389.6563,667.25959 c -2e-4,-8.38211 -3.4368,-15.13813 -10.3101,-20.26806 -6.8735,-5.12982 -18.5917,-10.41058 -35.1548,-15.84229 -16.4961,-5.02922 -28.6503,-10.36027 -36.4624,-15.99316 -7.8122,-5.63272 -11.7183,-13.98135 -11.7183,-25.0459 0,-10.99727 4.5767,-19.89912 13.73,-26.70557 9.1533,-6.80617 20.771,-10.20932 34.8531,-10.20947 14.6184,1.5e-4 26.3701,3.75536 35.2553,11.26563 8.885,7.51054 13.1934,18.005 12.9253,31.4834 l -0.2012,0.60351 -4.6269,0 c -10e-5,-10.93022 -4.0235,-19.98295 -12.0703,-27.1582 -8.047,-7.17499 -18.4744,-10.76255 -31.2822,-10.7627 -13.2104,1.5e-4 -23.7048,3.10154 -31.4834,9.3042 -7.7787,6.20293 -11.668,13.52893 -11.668,21.97803 0,8.44932 3.1349,15.30592 9.4048,20.56982 6.2698,5.26409 17.9545,10.41073 35.0542,15.43994 16.6301,5.23054 29.0022,10.66218 37.1162,16.29493 8.1138,5.63286 12.1708,13.91443 12.1709,24.84472 -10e-5,11.13154 -4.7947,20.05015 -14.3838,26.75586 -9.5893,6.70573 -21.4249,10.05859 -35.5068,10.0586 -14.6856,-10e-6 -27.3259,-3.43669 -37.9209,-10.31006 -10.5951,-6.87336 -15.725,-17.68634 -15.3897,-32.43897 l 0.2012,-0.60351 4.5263,0 c 0,13.27737 4.8952,22.91684 14.6856,28.91845 9.7903,6.00164 21.0895,9.00245 33.8975,9.00245 12.8078,0 23.4029,-2.96728 31.7851,-8.90186 8.3821,-5.93455 12.5731,-13.36114 12.5733,-22.27979 z"
         style="fill:#cc861d;fill-opacity:1"
         id="path3838"
         inkscape:connector-curvature="0" />
      <path
         d="m 1502.1113,628.13167 -70.4101,0 0,68.19726 80.6699,0 0,5.43164 -86.1016,0 0,-146.45312 86.1016,0 0,5.43164 -80.6699,0 0,61.96093 70.4101,0 z"
         style="fill:#cc861d;fill-opacity:1"
         id="path3840"
         inkscape:connector-curvature="0" />
      <path
         d="m 1616.8799,658.00569 -71.5166,0 -16.3955,43.75488 -5.9346,0 54.7188,-146.45312 6.6386,0 54.8194,146.45312 -5.9346,0 z m -69.5049,-5.43164 67.4932,0 -30.6787,-81.97754 -2.8165,-8.54981 -0.6035,0 -2.7158,8.54981 z"
         style="fill:#cc861d;fill-opacity:1"
         id="path3842"
         inkscape:connector-curvature="0" />
      <path
         d="m 1667.7764,633.06038 0,68.80078 -5.4317,0 0,-146.45313 47.6778,0 c 15.4231,1.5e-4 27.2922,3.33625 35.6074,10.0083 8.315,6.67233 12.4725,16.4124 12.4726,29.22022 -10e-5,8.24814 -2.6321,15.74179 -7.896,22.48096 -5.2641,6.73933 -12.4559,11.11481 -21.5756,13.12646 10.5279,1.81062 18.0718,5.66641 22.6318,11.56738 4.5598,5.9011 6.8397,13.44504 6.8398,22.63184 l 0,13.78027 c -10e-5,4.55992 0.5531,8.65041 1.6597,12.27149 1.1063,3.6211 2.9336,6.57162 5.4819,8.85156 l 0,2.51465 -5.331,0 c -2.4142,-2.74935 -4.2247,-6.1525 -5.4317,-10.20948 -1.2071,-4.05695 -1.8106,-8.60007 -1.8105,-13.62939 l 0,-13.37793 c -10e-5,-9.92443 -3.4033,-17.66954 -10.2095,-23.23535 -6.8064,-5.56569 -16.5129,-8.34857 -29.1196,-8.34863 z m 0,-5.43164 41.2402,0 c 14.9537,7e-5 25.9678,-3.15162 33.0425,-9.45508 7.0744,-6.3033 10.6117,-14.14899 10.6118,-23.53711 -10e-5,-10.93022 -3.5709,-19.29561 -10.7124,-25.09619 -7.1417,-5.80032 -17.787,-8.70055 -31.936,-8.70069 l -42.2461,0 z"
         style="fill:#cc861d;fill-opacity:1"
         id="path3844"
         inkscape:connector-curvature="0" />
      <path
         d="m 1897.8164,656.89924 0.2012,0.60352 c 0.2681,15.02086 -4.275,26.50441 -13.6294,34.45068 -9.3546,7.94629 -21.6764,11.91943 -36.9653,11.91944 -16.0268,-10e-6 -28.8683,-5.91781 -38.5245,-17.75342 -9.6562,-11.83559 -14.4844,-27.3761 -14.4843,-46.62158 l 0,-21.92774 c -10e-5,-19.17828 4.8281,-34.70203 14.4843,-46.57129 9.6562,-11.869 22.4977,-17.80356 38.5245,-17.80371 15.2889,1.5e-4 27.6107,3.99006 36.9653,11.96973 9.3544,7.97994 13.8975,19.37967 13.6294,34.19922 l -0.2012,0.60351 -4.6269,0 c -2e-4,-13.21017 -4.1074,-23.40287 -12.3218,-30.57812 -8.2146,-7.17499 -19.3629,-10.76255 -33.4448,-10.7627 -14.2833,1.5e-4 -25.7836,5.39825 -34.501,16.19434 -8.7175,10.79634 -13.0762,24.97894 -13.0762,42.54785 l 0,22.12891 c 0,17.77022 4.3587,32.03665 13.0762,42.79931 8.7174,10.76271 20.2177,16.14405 34.501,16.14405 14.0819,0 25.2302,-3.45345 33.4448,-10.36036 8.2144,-6.90688 12.3216,-17.30075 12.3218,-31.18164 z"
         style="fill:#cc861d;fill-opacity:1"
         id="path3846"
         inkscape:connector-curvature="0" />
      <path
         d="m 2038.0332,701.76057 -5.4316,0 0,-69.90723 -93.545,0 0,69.90723 -5.4316,0 0,-146.45312 5.4316,0 0,71.11425 93.545,0 0,-71.11425 5.4316,0 z"
         style="fill:#cc861d;fill-opacity:1"
         id="path3848"
         inkscape:connector-curvature="0" />
      <path
         d="m 2150.2871,620.99006 c -5.4987,-6.90681 -9.5557,-13.21019 -12.1709,-18.91015 -2.6153,-5.69977 -3.9229,-11.6008 -3.9228,-17.70313 -1e-4,-9.99141 2.7325,-17.68622 8.1977,-23.08447 5.4651,-5.39797 12.9588,-8.09702 22.481,-8.09717 8.8515,1.5e-4 15.6913,2.41421 20.5195,7.24219 4.828,4.82826 7.2421,11.1987 7.2422,19.11133 -1e-4,5.63293 -1.2909,10.41075 -3.8726,14.33349 -2.5818,3.92296 -6.2196,7.76199 -10.9135,11.51709 l -20.3184,16.19434 47.7783,54.31641 c 3.621,-5.09633 6.4542,-10.82972 8.4995,-17.2002 2.0452,-6.37039 3.0678,-13.21023 3.0679,-20.51953 l 5.5322,0 c -1e-4,8.38222 -1.1736,16.00998 -3.5205,22.8833 -2.3471,6.87341 -5.6329,13.19355 -9.8574,18.96045 l 18.6084,21.22363 -0.2012,0.50293 -6.0351,0 -15.792,-17.80371 c -0.3354,0.3353 -0.6036,0.60353 -0.8047,0.80469 -0.2013,0.20119 -0.3354,0.36883 -0.4024,0.50293 -6.0352,5.96811 -12.3553,10.56153 -18.9604,13.78027 -6.6052,3.21875 -14.0653,4.82812 -22.3804,4.82813 -13.5456,-10e-6 -24.2077,-3.36963 -31.9863,-10.10889 -7.7787,-6.73924 -11.668,-15.87579 -11.668,-27.40967 0,-7.64449 2.2632,-14.71902 6.7896,-21.22363 4.5263,-6.5045 10.8465,-13.17669 18.9604,-20.0166 z m 12.7744,77.45118 c 7.3763,0 14.4508,-1.59261 21.2237,-4.77784 6.7727,-3.18521 12.7072,-7.72833 17.8037,-13.62939 l -45.1631,-51.19824 c -0.5365,-0.53639 -1.0562,-1.10637 -1.5591,-1.70996 -0.503,-0.60344 -1.1233,-1.34107 -1.8608,-2.21289 l -5.2305,4.12402 c -9.1869,7.91282 -15.3897,14.80295 -18.6084,20.67041 -3.2188,5.86756 -4.8281,11.41654 -4.8281,16.64697 0,8.98571 3.2858,16.57994 9.8574,22.78272 6.5716,6.2028 16.0266,9.3042 28.3652,9.3042 z m -23.3359,-114.26563 c 0,5.29764 1.1735,10.7628 3.5205,16.39551 2.347,5.63291 6.0351,11.39983 11.0644,17.30078 l 21.0225,-16.69727 c 4.0234,-3.35276 6.9739,-6.82297 8.8516,-10.41064 1.8775,-3.58745 2.8163,-7.32589 2.8164,-11.21533 -1e-4,-6.30326 -1.8945,-11.36608 -5.6831,-15.18848 -3.7888,-3.82212 -9.2708,-5.73325 -16.4458,-5.7334 -8.047,1.5e-4 -14.2497,2.43097 -18.6084,7.29248 -4.3588,4.86179 -6.5381,10.94723 -6.5381,18.25635 z"
         style="fill:#cc861d;fill-opacity:1"
         id="path3850"
         inkscape:connector-curvature="0" />
      <path
         d="m 1138.9961,924.75959 c -10e-5,-8.38211 -3.4368,-15.13813 -10.3101,-20.26806 -6.8734,-5.12982 -18.5917,-10.41058 -35.1547,-15.84229 -16.4962,-5.02922 -28.6503,-10.36027 -36.4625,-15.99316 -7.8121,-5.63272 -11.7182,-13.98135 -11.7182,-25.0459 0,-10.99727 4.5766,-19.89912 13.73,-26.70557 9.1533,-6.80617 20.7709,-10.20932 34.853,-10.20947 14.6184,1.5e-4 26.3702,3.75536 35.2554,11.26563 8.885,7.51054 13.1934,18.005 12.9253,31.4834 l -0.2012,0.60351 -4.627,0 c -10e-5,-10.93022 -4.0235,-19.98295 -12.0703,-27.1582 -8.0469,-7.17499 -18.4743,-10.76255 -31.2822,-10.7627 -13.2103,1.5e-4 -23.7048,3.10154 -31.4834,9.3042 -7.7787,6.20293 -11.668,13.52893 -11.668,21.97803 0,8.44932 3.1349,15.30592 9.4048,20.56982 6.2698,5.26409 17.9546,10.41073 35.0542,15.43994 16.6301,5.23054 29.0022,10.66218 37.1162,16.29493 8.1138,5.63286 12.1708,13.91443 12.1709,24.84472 -10e-5,11.13154 -4.7947,20.05015 -14.3838,26.75586 -9.5892,6.70573 -21.4248,10.05859 -35.5068,10.0586 -14.6856,-10e-6 -27.3259,-3.43669 -37.9209,-10.31006 -10.5951,-6.87336 -15.7249,-17.68634 -15.3897,-32.43897 l 0.2012,-0.60351 4.5264,0 c 0,13.27737 4.8952,22.91684 14.6855,28.91845 9.7904,6.00164 21.0895,9.00245 33.8975,9.00245 12.8079,0 23.4029,-2.96728 31.7852,-8.90186 8.382,-5.93455 12.5731,-13.36114 12.5732,-22.27979 z"
         style="fill:#cc861d;fill-opacity:1"
         id="path3852"
         inkscape:connector-curvature="0" />
      <path
         d="m 1185.0645,959.26057 -5.4317,0 0,-146.45312 5.4317,0 z"
         style="fill:#cc861d;fill-opacity:1"
         id="path3854"
         inkscape:connector-curvature="0" />
      <path
         d="m 1298.0225,950.61018 0.6035,0 61.1562,-137.80273 6.1358,0 0,146.45312 -5.4317,0 0,-133.07519 -0.6035,-0.10059 -59.3457,133.17578 -4.3252,0 -60.6533,-136.09277 -0.6035,0.10058 0,135.99219 -5.4317,0 0,-146.45312 7.544,0 z"
         style="fill:#cc861d;fill-opacity:1"
         id="path3856"
         inkscape:connector-curvature="0" />
      <path
         d="m 1504.7266,812.80745 0,97.2666 c -2e-4,16.09378 -4.6606,28.66701 -13.9815,37.71972 -9.321,9.05274 -21.3243,13.5791 -36.0097,13.57911 -14.7527,-10e-6 -26.7895,-4.54313 -36.1104,-13.6294 -9.321,-9.08624 -13.9815,-21.64271 -13.9814,-37.66943 l 0,-97.2666 5.4316,0 0,97.2666 c 0,13.88089 4.2078,24.99563 12.6235,33.34424 8.4157,8.34864 19.0945,12.52295 32.0367,12.52295 12.8749,0 23.5202,-4.17431 31.936,-12.52295 8.4156,-8.34861 12.6234,-19.46335 12.6235,-33.34424 l 0,-97.2666 z"
         style="fill:#cc861d;fill-opacity:1"
         id="path3858"
         inkscape:connector-curvature="0" />
      <path
         d="m 1548.8838,953.82893 79.1611,0 0,5.43164 -84.6933,0 0,-146.45312 5.5322,0 z"
         style="fill:#cc861d;fill-opacity:1"
         id="path3860"
         inkscape:connector-curvature="0" />
      <path
         d="m 1734.3643,915.50569 -71.5166,0 -16.3956,43.75488 -5.9345,0 54.7187,-146.45312 6.6387,0 54.8193,146.45312 -5.9345,0 z m -69.5049,-5.43164 67.4931,0 -30.6787,-81.97754 -2.8164,-8.54981 -0.6035,0 -2.7158,8.54981 z"
         style="fill:#cc861d;fill-opacity:1"
         id="path3862"
         inkscape:connector-curvature="0" />
      <path
         d="m 1877.5986,818.23909 -51.2988,0 0,141.02148 -5.4316,0 0,-141.02148 -54.92,0 0,-5.43164 111.6504,0 z"
         style="fill:#cc861d;fill-opacity:1"
         id="path3864"
         inkscape:connector-curvature="0" />
      <path
         d="m 1912.9043,959.26057 -5.4316,0 0,-146.45312 5.4316,0 z"
         style="fill:#cc861d;fill-opacity:1"
         id="path3866"
         inkscape:connector-curvature="0" />
      <path
         d="m 2061.0674,896.99788 c -10e-5,19.78194 -4.8953,35.45657 -14.6856,47.02392 -9.7904,11.56739 -23.2689,17.35107 -40.4355,17.35108 -17.2338,-10e-6 -30.7626,-5.78369 -40.5864,-17.35108 -9.8239,-11.56735 -14.7359,-27.24198 -14.7359,-47.02392 l 0,-21.92774 c 0,-19.71474 4.8784,-35.3726 14.6353,-46.97363 9.7568,-11.60077 23.252,-17.40122 40.4858,-17.40137 17.1666,1.5e-4 30.6786,5.8006 40.5362,17.40137 9.8573,11.60103 14.786,27.25889 14.7861,46.97363 z m -5.4317,-22.12891 c -10e-5,-17.97125 -4.3253,-32.25444 -12.9755,-42.84961 -8.6505,-10.59491 -20.9555,-15.89243 -36.9151,-15.89258 -15.8926,1.5e-4 -28.1306,5.29767 -36.7138,15.89258 -8.5834,10.59517 -12.8751,24.87836 -12.875,42.84961 l 0,22.12891 c -1e-4,18.10551 4.3084,32.45576 12.9252,43.05078 8.6169,10.59506 20.9051,15.89258 36.8648,15.89258 15.9595,0 28.231,-5.28076 36.8144,-15.84229 8.5833,-10.56149 12.8749,-24.9285 12.875,-43.10107 z"
         style="fill:#cc861d;fill-opacity:1"
         id="path3868"
         inkscape:connector-curvature="0" />
      <path
         d="m 2200.0771,959.26057 -5.4316,0 -93.9473,-136.39453 -0.6035,0.20117 0,136.19336 -5.5322,0 0,-146.45312 5.5322,0 93.9473,136.09277 0.6035,-0.20117 0,-135.8916 5.4316,0 z"
         style="fill:#cc861d;fill-opacity:1"
         id="path3870"
         inkscape:connector-curvature="0" />
    </g>
    <g
       id="g3977"
       style="font-size:206px;font-style:normal;font-variant:normal;font-weight:200;font-stretch:normal;line-height:125%;letter-spacing:0px;word-spacing:0px;fill:#000000;fill-opacity:1;stroke:none;font-family:Roboto Th;-inkscape-font-specification:Roboto Th Ultra-Light"
       transform="translate(-137.5,52.362183)">
      <path
         id="path3981"
         style="fill:#000000;fill-opacity:1"
         d="m 1327.6953,40.307447 0,97.266603 c -10e-5,16.09378 -4.6606,28.66701 -13.9814,37.71972 -9.3211,9.05274 -21.3243,13.5791 -36.0098,13.57911 -14.7527,-1e-5 -26.7894,-4.54313 -36.1103,-13.6294 -9.321,-9.08624 -13.9815,-21.64271 -13.9815,-37.66943 l 0,-97.266603 5.4316,0 0,97.266603 c 0,13.88089 4.2079,24.99563 12.6236,33.34424 8.4156,8.34864 19.0945,12.52295 32.0366,12.52295 12.8749,0 23.5203,-4.17431 31.936,-12.52295 8.4156,-8.34861 12.6235,-19.46335 12.6236,-33.34424 l 0,-97.266603 z"
         inkscape:connector-curvature="0" />
      <path
         id="path3983"
         style="fill:#000000;fill-opacity:1"
         d="m 1371.8525,181.32893 79.1612,0 0,5.43164 -84.6934,0 0,-146.453123 5.5322,0 z"
         inkscape:connector-curvature="0" />
      <path
         id="path3985"
         style="fill:#000000;fill-opacity:1"
         d="m 1577.4502,45.739087 -51.2988,0 0,141.021483 -5.4317,0 0,-141.021483 -54.9199,0 0,-5.43164 111.6504,0 z"
         inkscape:connector-curvature="0" />
      <path
         id="path3987"
         style="fill:#000000;fill-opacity:1"
         d="m 1612.7559,186.76057 -5.4317,0 0,-146.453123 5.4317,0 z"
         inkscape:connector-curvature="0" />
      <path
         id="path3991"
         style="fill:#000000;fill-opacity:1"
         d="m 1278.8105,424.54573 c -3.0847,5.23048 -9.0025,10.17595 -17.7534,14.83642 -8.751,4.66049 -19.497,6.99072 -32.2378,6.99073 -16.7643,-1e-5 -30.3602,-5.9681 -40.7876,-17.9043 -10.4274,-11.93617 -15.6411,-27.45992 -15.6411,-46.57129 l 0,-23.93945 c 0,-18.3736 5.0628,-33.34412 15.1885,-44.91162 10.1256,-11.56724 23.3024,-17.35093 39.5303,-17.35108 15.6242,1.5e-4 28.0801,4.02358 37.3677,12.07031 9.2873,8.04701 13.7633,18.37382 13.4282,30.98047 l -0.2012,0.60352 -4.5264,0 c -10e-5,-11.19845 -4.0068,-20.36853 -12.02,-27.51026 -8.0134,-7.14146 -19.3629,-10.71225 -34.0483,-10.7124 -14.8197,1.5e-4 -26.7392,5.2809 -35.7583,15.84229 -9.0193,10.56164 -13.5289,24.15749 -13.5288,40.7876 l 0,24.14062 c -10e-5,17.43494 4.6604,31.63431 13.9814,42.59814 9.3209,10.96388 21.6595,16.44581 37.0156,16.44581 11.735,0 21.408,-1.91113 29.0191,-5.7334 7.6109,-3.82226 12.791,-8.2145 15.5405,-13.17676 l 0,-41.64258 -44.7607,0 0,-5.53223 50.1923,0 z"
         inkscape:connector-curvature="0" />
      <path
         id="path3993"
         style="fill:#000000;fill-opacity:1"
         d="m 1395.0879,370.63167 -70.4102,0 0,68.19726 80.67,0 0,5.43164 -86.1016,0 0,-146.45312 86.1016,0 0,5.43164 -80.67,0 0,61.96093 70.4102,0 z"
         inkscape:connector-curvature="0" />
      <path
         id="path3995"
         style="fill:#000000;fill-opacity:1"
         d="m 1538.2217,444.26057 -5.4317,0 -93.9472,-136.39453 -0.6035,0.20117 0,136.19336 -5.5323,0 0,-146.45312 5.5323,0 93.9472,136.09277 0.6035,-0.20117 0,-135.8916 5.4317,0 z"
         inkscape:connector-curvature="0" />
      <path
         id="path3997"
         style="fill:#000000;fill-opacity:1"
         d="m 1675.6221,303.23909 -51.2989,0 0,141.02148 -5.4316,0 0,-141.02148 -54.9199,0 0,-5.43164 111.6504,0 z"
         inkscape:connector-curvature="0" />
      <path
         id="path4001"
         style="fill:#000000;fill-opacity:1"
         d="m 1265.5332,628.13167 -70.4102,0 0,68.19726 80.67,0 0,5.43164 -86.1016,0 0,-146.45312 86.1016,0 0,5.43164 -80.67,0 0,61.96093 70.4102,0 z"
         inkscape:connector-curvature="0" />
      <path
         id="path4003"
         style="fill:#000000;fill-opacity:1"
         d="m 1389.6563,667.25959 c -2e-4,-8.38211 -3.4368,-15.13813 -10.3101,-20.26806 -6.8735,-5.12982 -18.5917,-10.41058 -35.1548,-15.84229 -16.4961,-5.02922 -28.6503,-10.36027 -36.4624,-15.99316 -7.8122,-5.63272 -11.7183,-13.98135 -11.7183,-25.0459 0,-10.99727 4.5767,-19.89912 13.73,-26.70557 9.1533,-6.80617 20.771,-10.20932 34.8531,-10.20947 14.6184,1.5e-4 26.3701,3.75536 35.2553,11.26563 8.885,7.51054 13.1934,18.005 12.9253,31.4834 l -0.2012,0.60351 -4.6269,0 c -10e-5,-10.93022 -4.0235,-19.98295 -12.0703,-27.1582 -8.047,-7.17499 -18.4744,-10.76255 -31.2822,-10.7627 -13.2104,1.5e-4 -23.7048,3.10154 -31.4834,9.3042 -7.7787,6.20293 -11.668,13.52893 -11.668,21.97803 0,8.44932 3.1349,15.30592 9.4048,20.56982 6.2698,5.26409 17.9545,10.41073 35.0542,15.43994 16.6301,5.23054 29.0022,10.66218 37.1162,16.29493 8.1138,5.63286 12.1708,13.91443 12.1709,24.84472 -10e-5,11.13154 -4.7947,20.05015 -14.3838,26.75586 -9.5893,6.70573 -21.4249,10.05859 -35.5068,10.0586 -14.6856,-10e-6 -27.3259,-3.43669 -37.9209,-10.31006 -10.5951,-6.87336 -15.725,-17.68634 -15.3897,-32.43897 l 0.2012,-0.60351 4.5263,0 c 0,13.27737 4.8952,22.91684 14.6856,28.91845 9.7903,6.00164 21.0895,9.00245 33.8975,9.00245 12.8078,0 23.4029,-2.96728 31.7851,-8.90186 8.3821,-5.93455 12.5731,-13.36114 12.5733,-22.27979 z"
         inkscape:connector-curvature="0" />
      <path
         id="path4005"
         style="fill:#000000;fill-opacity:1"
         d="m 1502.1113,628.13167 -70.4101,0 0,68.19726 80.6699,0 0,5.43164 -86.1016,0 0,-146.45312 86.1016,0 0,5.43164 -80.6699,0 0,61.96093 70.4101,0 z"
         inkscape:connector-curvature="0" />
      <path
         id="path4007"
         style="fill:#000000;fill-opacity:1"
         d="m 1616.8799,658.00569 -71.5166,0 -16.3955,43.75488 -5.9346,0 54.7188,-146.45312 6.6386,0 54.8194,146.45312 -5.9346,0 z m -69.5049,-5.43164 67.4932,0 -30.6787,-81.97754 -2.8165,-8.54981 -0.6035,0 -2.7158,8.54981 z"
         inkscape:connector-curvature="0" />
      <path
         id="path4009"
         style="fill:#000000;fill-opacity:1"
         d="m 1667.7764,633.06038 0,68.80078 -5.4317,0 0,-146.45313 47.6778,0 c 15.4231,1.5e-4 27.2922,3.33625 35.6074,10.0083 8.315,6.67233 12.4725,16.4124 12.4726,29.22022 -10e-5,8.24814 -2.6321,15.74179 -7.896,22.48096 -5.2641,6.73933 -12.4559,11.11481 -21.5756,13.12646 10.5279,1.81062 18.0718,5.66641 22.6318,11.56738 4.5598,5.9011 6.8397,13.44504 6.8398,22.63184 l 0,13.78027 c -10e-5,4.55992 0.5531,8.65041 1.6597,12.27149 1.1063,3.6211 2.9336,6.57162 5.4819,8.85156 l 0,2.51465 -5.331,0 c -2.4142,-2.74935 -4.2247,-6.1525 -5.4317,-10.20948 -1.2071,-4.05695 -1.8106,-8.60007 -1.8105,-13.62939 l 0,-13.37793 c -10e-5,-9.92443 -3.4033,-17.66954 -10.2095,-23.23535 -6.8064,-5.56569 -16.5129,-8.34857 -29.1196,-8.34863 z m 0,-5.43164 41.2402,0 c 14.9537,7e-5 25.9678,-3.15162 33.0425,-9.45508 7.0744,-6.3033 10.6117,-14.14899 10.6118,-23.53711 -10e-5,-10.93022 -3.5709,-19.29561 -10.7124,-25.09619 -7.1417,-5.80032 -17.787,-8.70055 -31.936,-8.70069 l -42.2461,0 z"
         inkscape:connector-curvature="0" />
      <path
         id="path4011"
         style="fill:#000000;fill-opacity:1"
         d="m 1897.8164,656.89924 0.2012,0.60352 c 0.2681,15.02086 -4.275,26.50441 -13.6294,34.45068 -9.3546,7.94629 -21.6764,11.91943 -36.9653,11.91944 -16.0268,-10e-6 -28.8683,-5.91781 -38.5245,-17.75342 -9.6562,-11.83559 -14.4844,-27.3761 -14.4843,-46.62158 l 0,-21.92774 c -10e-5,-19.17828 4.8281,-34.70203 14.4843,-46.57129 9.6562,-11.869 22.4977,-17.80356 38.5245,-17.80371 15.2889,1.5e-4 27.6107,3.99006 36.9653,11.96973 9.3544,7.97994 13.8975,19.37967 13.6294,34.19922 l -0.2012,0.60351 -4.6269,0 c -2e-4,-13.21017 -4.1074,-23.40287 -12.3218,-30.57812 -8.2146,-7.17499 -19.3629,-10.76255 -33.4448,-10.7627 -14.2833,1.5e-4 -25.7836,5.39825 -34.501,16.19434 -8.7175,10.79634 -13.0762,24.97894 -13.0762,42.54785 l 0,22.12891 c 0,17.77022 4.3587,32.03665 13.0762,42.79931 8.7174,10.76271 20.2177,16.14405 34.501,16.14405 14.0819,0 25.2302,-3.45345 33.4448,-10.36036 8.2144,-6.90688 12.3216,-17.30075 12.3218,-31.18164 z"
         inkscape:connector-curvature="0" />
      <path
         id="path4013"
         style="fill:#000000;fill-opacity:1"
         d="m 2038.0332,701.76057 -5.4316,0 0,-69.90723 -93.545,0 0,69.90723 -5.4316,0 0,-146.45312 5.4316,0 0,71.11425 93.545,0 0,-71.11425 5.4316,0 z"
         inkscape:connector-curvature="0" />
      <path
         id="path4015"
         style="fill:#000000;fill-opacity:1"
         d="m 2150.2871,620.99006 c -5.4987,-6.90681 -9.5557,-13.21019 -12.1709,-18.91015 -2.6153,-5.69977 -3.9229,-11.6008 -3.9228,-17.70313 -1e-4,-9.99141 2.7325,-17.68622 8.1977,-23.08447 5.4651,-5.39797 12.9588,-8.09702 22.481,-8.09717 8.8515,1.5e-4 15.6913,2.41421 20.5195,7.24219 4.828,4.82826 7.2421,11.1987 7.2422,19.11133 -1e-4,5.63293 -1.2909,10.41075 -3.8726,14.33349 -2.5818,3.92296 -6.2196,7.76199 -10.9135,11.51709 l -20.3184,16.19434 47.7783,54.31641 c 3.621,-5.09633 6.4542,-10.82972 8.4995,-17.2002 2.0452,-6.37039 3.0678,-13.21023 3.0679,-20.51953 l 5.5322,0 c -1e-4,8.38222 -1.1736,16.00998 -3.5205,22.8833 -2.3471,6.87341 -5.6329,13.19355 -9.8574,18.96045 l 18.6084,21.22363 -0.2012,0.50293 -6.0351,0 -15.792,-17.80371 c -0.3354,0.3353 -0.6036,0.60353 -0.8047,0.80469 -0.2013,0.20119 -0.3354,0.36883 -0.4024,0.50293 -6.0352,5.96811 -12.3553,10.56153 -18.9604,13.78027 -6.6052,3.21875 -14.0653,4.82812 -22.3804,4.82813 -13.5456,-10e-6 -24.2077,-3.36963 -31.9863,-10.10889 -7.7787,-6.73924 -11.668,-15.87579 -11.668,-27.40967 0,-7.64449 2.2632,-14.71902 6.7896,-21.22363 4.5263,-6.5045 10.8465,-13.17669 18.9604,-20.0166 z m 12.7744,77.45118 c 7.3763,0 14.4508,-1.59261 21.2237,-4.77784 6.7727,-3.18521 12.7072,-7.72833 17.8037,-13.62939 l -45.1631,-51.19824 c -0.5365,-0.53639 -1.0562,-1.10637 -1.5591,-1.70996 -0.503,-0.60344 -1.1233,-1.34107 -1.8608,-2.21289 l -5.2305,4.12402 c -9.1869,7.91282 -15.3897,14.80295 -18.6084,20.67041 -3.2188,5.86756 -4.8281,11.41654 -4.8281,16.64697 0,8.98571 3.2858,16.57994 9.8574,22.78272 6.5716,6.2028 16.0266,9.3042 28.3652,9.3042 z m -23.3359,-114.26563 c 0,5.29764 1.1735,10.7628 3.5205,16.39551 2.347,5.63291 6.0351,11.39983 11.0644,17.30078 l 21.0225,-16.69727 c 4.0234,-3.35276 6.9739,-6.82297 8.8516,-10.41064 1.8775,-3.58745 2.8163,-7.32589 2.8164,-11.21533 -1e-4,-6.30326 -1.8945,-11.36608 -5.6831,-15.18848 -3.7888,-3.82212 -9.2708,-5.73325 -16.4458,-5.7334 -8.047,1.5e-4 -14.2497,2.43097 -18.6084,7.29248 -4.3588,4.86179 -6.5381,10.94723 -6.5381,18.25635 z"
         inkscape:connector-curvature="0" />
      <path
         id="path4019"
         style="fill:#000000;fill-opacity:1"
         d="m 1185.0645,959.26057 -5.4317,0 0,-146.45312 5.4317,0 z"
         inkscape:connector-curvature="0" />
      <path
         id="path4021"
         style="fill:#000000;fill-opacity:1"
         d="m 1298.0225,950.61018 0.6035,0 61.1562,-137.80273 6.1358,0 0,146.45312 -5.4317,0 0,-133.07519 -0.6035,-0.10059 -59.3457,133.17578 -4.3252,0 -60.6533,-136.09277 -0.6035,0.10058 0,135.99219 -5.4317,0 0,-146.45312 7.544,0 z"
         inkscape:connector-curvature="0" />
      <path
         id="path4023"
         style="fill:#000000;fill-opacity:1"
         d="m 1504.7266,812.80745 0,97.2666 c -2e-4,16.09378 -4.6606,28.66701 -13.9815,37.71972 -9.321,9.05274 -21.3243,13.5791 -36.0097,13.57911 -14.7527,-10e-6 -26.7895,-4.54313 -36.1104,-13.6294 -9.321,-9.08624 -13.9815,-21.64271 -13.9814,-37.66943 l 0,-97.2666 5.4316,0 0,97.2666 c 0,13.88089 4.2078,24.99563 12.6235,33.34424 8.4157,8.34864 19.0945,12.52295 32.0367,12.52295 12.8749,0 23.5202,-4.17431 31.936,-12.52295 8.4156,-8.34861 12.6234,-19.46335 12.6235,-33.34424 l 0,-97.2666 z"
         inkscape:connector-curvature="0" />
      <path
         id="path4025"
         style="fill:#000000;fill-opacity:1"
         d="m 1548.8838,953.82893 79.1611,0 0,5.43164 -84.6933,0 0,-146.45312 5.5322,0 z"
         inkscape:connector-curvature="0" />
      <path
         id="path4027"
         style="fill:#000000;fill-opacity:1"
         d="m 1734.3643,915.50569 -71.5166,0 -16.3956,43.75488 -5.9345,0 54.7187,-146.45312 6.6387,0 54.8193,146.45312 -5.9345,0 z m -69.5049,-5.43164 67.4931,0 -30.6787,-81.97754 -2.8164,-8.54981 -0.6035,0 -2.7158,8.54981 z"
         inkscape:connector-curvature="0" />
      <path
         id="path4029"
         style="fill:#000000;fill-opacity:1"
         d="m 1877.5986,818.23909 -51.2988,0 0,141.02148 -5.4316,0 0,-141.02148 -54.92,0 0,-5.43164 111.6504,0 z"
         inkscape:connector-curvature="0" />
      <path
         id="path4031"
         style="fill:#000000;fill-opacity:1"
         d="m 1912.9043,959.26057 -5.4316,0 0,-146.45312 5.4316,0 z"
         inkscape:connector-curvature="0" />
      <path
         id="path4033"
         style="fill:#000000;fill-opacity:1"
         d="m 2061.0674,896.99788 c -10e-5,19.78194 -4.8953,35.45657 -14.6856,47.02392 -9.7904,11.56739 -23.2689,17.35107 -40.4355,17.35108 -17.2338,-10e-6 -30.7626,-5.78369 -40.5864,-17.35108 -9.8239,-11.56735 -14.7359,-27.24198 -14.7359,-47.02392 l 0,-21.92774 c 0,-19.71474 4.8784,-35.3726 14.6353,-46.97363 9.7568,-11.60077 23.252,-17.40122 40.4858,-17.40137 17.1666,1.5e-4 30.6786,5.8006 40.5362,17.40137 9.8573,11.60103 14.786,27.25889 14.7861,46.97363 z m -5.4317,-22.12891 c -10e-5,-17.97125 -4.3253,-32.25444 -12.9755,-42.84961 -8.6505,-10.59491 -20.9555,-15.89243 -36.9151,-15.89258 -15.8926,1.5e-4 -28.1306,5.29767 -36.7138,15.89258 -8.5834,10.59517 -12.8751,24.87836 -12.875,42.84961 l 0,22.12891 c -1e-4,18.10551 4.3084,32.45576 12.9252,43.05078 8.6169,10.59506 20.9051,15.89258 36.8648,15.89258 15.9595,0 28.231,-5.28076 36.8144,-15.84229 8.5833,-10.56149 12.8749,-24.9285 12.875,-43.10107 z"
         inkscape:connector-curvature="0" />
      <path
         id="path4035"
         style="fill:#000000;fill-opacity:1"
         d="m 2200.0771,959.26057 -5.4316,0 -93.9473,-136.39453 -0.6035,0.20117 0,136.19336 -5.5322,0 0,-146.45312 5.5322,0 93.9473,136.09277 0.6035,-0.20117 0,-135.8916 5.4316,0 z"
         inkscape:connector-curvature="0" />
    </g>
  </g>
  <g
     transform="translate(0,-52.362183)"
     inkscape:groupmode="layer"
     id="g3914"
     inkscape:label="1. Ring"
     style="display:inline" />
  <g
     style="display:inline"
     inkscape:label="2. Ring"
     id="g3192"
     inkscape:groupmode="layer"
     transform="translate(0,-52.362183)" />
  <g
     inkscape:groupmode="layer"
     id="layer3"
     inkscape:label="Text"
     transform="translate(0,-52.362183)"
     style="display:none">
    <flowRoot
       transform="translate(114.86329,-50.676158)"
       xml:space="preserve"
       id="flowRoot3098"
       style="font-size:225px;font-style:normal;font-weight:normal;line-height:125%;letter-spacing:0px;word-spacing:0px;fill:#000000;fill-opacity:1;stroke:none;font-family:Roboto Light;-inkscape-font-specification:Roboto Light"><flowRegion
         id="flowRegion3100"><rect
           id="rect3102"
           width="621.875"
           height="265.625"
           x="106.25"
           y="482.04968"
           style="font-size:225px;font-family:Roboto Light;-inkscape-font-specification:Roboto Light"
           ry="0" /></flowRegion><flowPara
         id="flowPara3104"
         style="font-size:225px;font-style:normal;font-variant:normal;font-weight:200;font-stretch:normal;fill:#ff7f2a;font-family:Roboto Th;-inkscape-font-specification:Roboto Th">MARS</flowPara></flowRoot>  </g>
</svg>
